<mxfile host="app.diagrams.net" agent="Mozilla/5.0 (Windows NT 10.0; Win64; x64) AppleWebKit/537.36 (KHTML, like Gecko) Chrome/140.0.0.0 Safari/537.36" version="28.2.3">
  <diagram name="Page-1" id="SM3xpQQY5D07gmHNhgKi">
    <mxGraphModel dx="404" dy="600" grid="1" gridSize="10" guides="1" tooltips="1" connect="1" arrows="1" fold="1" page="1" pageScale="1" pageWidth="827" pageHeight="1169" math="0" shadow="0">
      <root>
        <mxCell id="0" />
        <mxCell id="1" parent="0" />
        <mxCell id="-bnvrokYZT6KtJf1mCJH-3" style="edgeStyle=orthogonalEdgeStyle;rounded=0;orthogonalLoop=1;jettySize=auto;html=1;entryX=0.5;entryY=0;entryDx=0;entryDy=0;" edge="1" parent="1" source="-bnvrokYZT6KtJf1mCJH-1" target="-bnvrokYZT6KtJf1mCJH-2">
          <mxGeometry relative="1" as="geometry" />
        </mxCell>
        <mxCell id="-bnvrokYZT6KtJf1mCJH-1" value="ZK Eats" style="rounded=0;whiteSpace=wrap;html=1;" vertex="1" parent="1">
          <mxGeometry x="230" y="40" width="120" height="60" as="geometry" />
        </mxCell>
        <mxCell id="-bnvrokYZT6KtJf1mCJH-5" value="" style="edgeStyle=orthogonalEdgeStyle;rounded=0;orthogonalLoop=1;jettySize=auto;html=1;" edge="1" parent="1" source="-bnvrokYZT6KtJf1mCJH-2" target="-bnvrokYZT6KtJf1mCJH-4">
          <mxGeometry relative="1" as="geometry" />
        </mxCell>
        <mxCell id="-bnvrokYZT6KtJf1mCJH-7" value="" style="edgeStyle=orthogonalEdgeStyle;rounded=0;orthogonalLoop=1;jettySize=auto;html=1;" edge="1" parent="1" source="-bnvrokYZT6KtJf1mCJH-2" target="-bnvrokYZT6KtJf1mCJH-6">
          <mxGeometry relative="1" as="geometry" />
        </mxCell>
        <mxCell id="-bnvrokYZT6KtJf1mCJH-2" value="Designing UI/UX" style="ellipse;whiteSpace=wrap;html=1;aspect=fixed;" vertex="1" parent="1">
          <mxGeometry x="250" y="150" width="80" height="80" as="geometry" />
        </mxCell>
        <mxCell id="-bnvrokYZT6KtJf1mCJH-27" style="edgeStyle=orthogonalEdgeStyle;rounded=0;orthogonalLoop=1;jettySize=auto;html=1;exitX=0.5;exitY=1;exitDx=0;exitDy=0;entryX=1;entryY=0.5;entryDx=0;entryDy=0;" edge="1" parent="1" source="-bnvrokYZT6KtJf1mCJH-4" target="-bnvrokYZT6KtJf1mCJH-8">
          <mxGeometry relative="1" as="geometry" />
        </mxCell>
        <mxCell id="-bnvrokYZT6KtJf1mCJH-4" value="Listing Restaurants and their cusines" style="ellipse;whiteSpace=wrap;html=1;aspect=fixed;" vertex="1" parent="1">
          <mxGeometry x="390" y="150" width="80" height="80" as="geometry" />
        </mxCell>
        <mxCell id="-bnvrokYZT6KtJf1mCJH-25" style="edgeStyle=orthogonalEdgeStyle;rounded=0;orthogonalLoop=1;jettySize=auto;html=1;exitX=0.5;exitY=1;exitDx=0;exitDy=0;entryX=0;entryY=0.5;entryDx=0;entryDy=0;" edge="1" parent="1" source="-bnvrokYZT6KtJf1mCJH-6" target="-bnvrokYZT6KtJf1mCJH-8">
          <mxGeometry relative="1" as="geometry" />
        </mxCell>
        <mxCell id="-bnvrokYZT6KtJf1mCJH-6" value="Customer sign up" style="ellipse;whiteSpace=wrap;html=1;aspect=fixed;" vertex="1" parent="1">
          <mxGeometry x="120" y="150" width="80" height="80" as="geometry" />
        </mxCell>
        <mxCell id="-bnvrokYZT6KtJf1mCJH-10" value="" style="edgeStyle=orthogonalEdgeStyle;rounded=0;orthogonalLoop=1;jettySize=auto;html=1;" edge="1" parent="1" source="-bnvrokYZT6KtJf1mCJH-8" target="-bnvrokYZT6KtJf1mCJH-9">
          <mxGeometry relative="1" as="geometry" />
        </mxCell>
        <mxCell id="-bnvrokYZT6KtJf1mCJH-8" value="Checkout Page &amp;amp; RTS" style="ellipse;whiteSpace=wrap;html=1;aspect=fixed;" vertex="1" parent="1">
          <mxGeometry x="250" y="260" width="80" height="80" as="geometry" />
        </mxCell>
        <mxCell id="-bnvrokYZT6KtJf1mCJH-12" value="" style="edgeStyle=orthogonalEdgeStyle;rounded=0;orthogonalLoop=1;jettySize=auto;html=1;" edge="1" parent="1" source="-bnvrokYZT6KtJf1mCJH-9" target="-bnvrokYZT6KtJf1mCJH-11">
          <mxGeometry relative="1" as="geometry" />
        </mxCell>
        <mxCell id="-bnvrokYZT6KtJf1mCJH-9" value="Compiling to Apk" style="ellipse;whiteSpace=wrap;html=1;" vertex="1" parent="1">
          <mxGeometry x="230" y="400" width="120" height="80" as="geometry" />
        </mxCell>
        <mxCell id="-bnvrokYZT6KtJf1mCJH-14" value="" style="edgeStyle=orthogonalEdgeStyle;rounded=0;orthogonalLoop=1;jettySize=auto;html=1;" edge="1" parent="1" source="-bnvrokYZT6KtJf1mCJH-11" target="-bnvrokYZT6KtJf1mCJH-13">
          <mxGeometry relative="1" as="geometry" />
        </mxCell>
        <mxCell id="-bnvrokYZT6KtJf1mCJH-11" value="No Bugs Found" style="rhombus;whiteSpace=wrap;html=1;" vertex="1" parent="1">
          <mxGeometry x="250" y="520" width="80" height="80" as="geometry" />
        </mxCell>
        <mxCell id="-bnvrokYZT6KtJf1mCJH-16" value="" style="edgeStyle=orthogonalEdgeStyle;rounded=0;orthogonalLoop=1;jettySize=auto;html=1;" edge="1" parent="1" source="-bnvrokYZT6KtJf1mCJH-13" target="-bnvrokYZT6KtJf1mCJH-15">
          <mxGeometry relative="1" as="geometry" />
        </mxCell>
        <mxCell id="-bnvrokYZT6KtJf1mCJH-13" value="Writing Permissions for Department&amp;nbsp;" style="shape=parallelogram;perimeter=parallelogramPerimeter;whiteSpace=wrap;html=1;fixedSize=1;" vertex="1" parent="1">
          <mxGeometry x="209" y="660" width="160" height="60" as="geometry" />
        </mxCell>
        <mxCell id="-bnvrokYZT6KtJf1mCJH-20" value="" style="edgeStyle=orthogonalEdgeStyle;rounded=0;orthogonalLoop=1;jettySize=auto;html=1;" edge="1" parent="1" source="-bnvrokYZT6KtJf1mCJH-15" target="-bnvrokYZT6KtJf1mCJH-17">
          <mxGeometry relative="1" as="geometry" />
        </mxCell>
        <mxCell id="-bnvrokYZT6KtJf1mCJH-15" value="Pushed to Appstore" style="shape=cylinder3;whiteSpace=wrap;html=1;boundedLbl=1;backgroundOutline=1;size=15;" vertex="1" parent="1">
          <mxGeometry x="260" y="770" width="60" height="80" as="geometry" />
        </mxCell>
        <mxCell id="-bnvrokYZT6KtJf1mCJH-22" value="" style="edgeStyle=orthogonalEdgeStyle;rounded=0;orthogonalLoop=1;jettySize=auto;html=1;" edge="1" parent="1" source="-bnvrokYZT6KtJf1mCJH-17" target="-bnvrokYZT6KtJf1mCJH-21">
          <mxGeometry relative="1" as="geometry" />
        </mxCell>
        <mxCell id="-bnvrokYZT6KtJf1mCJH-23" value="" style="edgeStyle=orthogonalEdgeStyle;rounded=0;orthogonalLoop=1;jettySize=auto;html=1;" edge="1" parent="1" source="-bnvrokYZT6KtJf1mCJH-17" target="-bnvrokYZT6KtJf1mCJH-21">
          <mxGeometry relative="1" as="geometry" />
        </mxCell>
        <mxCell id="-bnvrokYZT6KtJf1mCJH-17" value="Customer Using Application&amp;nbsp;" style="shape=umlActor;verticalLabelPosition=bottom;verticalAlign=top;html=1;outlineConnect=0;" vertex="1" parent="1">
          <mxGeometry x="260" y="890" width="60" height="90" as="geometry" />
        </mxCell>
        <mxCell id="-bnvrokYZT6KtJf1mCJH-21" value="Recieved No Feedback" style="ellipse;shape=cloud;whiteSpace=wrap;html=1;" vertex="1" parent="1">
          <mxGeometry x="230" y="1040" width="120" height="80" as="geometry" />
        </mxCell>
      </root>
    </mxGraphModel>
  </diagram>
</mxfile>
